{"title":"Bad Boys 2 2003 720p BD-Rip Dual Audio Hindi-Eng~Abhinav4u~ {HKR","uid":7393121,"size":2712649790,"categoryP":"video","categoryS":"hd___movies","magnet":"?xt=urn:btih:fa0e0b558f7a4b85d302ea85264341869e9dfa44&amp;dn=Bad+Boys+2+2003+720p+BD-Rip+Dual+Audio+Hindi-Eng%7EAbhinav4u%7E+%7BHKR&amp;tr=udp%3A%2F%2Ftracker.openbittorrent.com%3A80&amp;tr=udp%3A%2F%2Fopen.demonii.com%3A1337&amp;tr=udp%3A%2F%2Ftracker.coppersurfer.tk%3A6969&amp;tr=udp%3A%2F%2Fexodus.desync.com%3A6969","seeders":1,"leechers":0,"uploader":"Abhinav4u","files":4,"time":1340838470,"description":"Team:-HKRG \nUploader:-Abhinav4u\n\nINFO:-\nFormat : Matroska\nFile size : 2.51 GiB\nDuration : 2h 45mn\nOverall bit rate : 2 180 Kbps\nMovie name : Bad Boys 2 2003 720p BD-Rip Dual Audio [Hindi-Eng]~Abhinav4u~ {HKRG}\n\nVideo Info:-\n\nFormat : AVC\nFormat/Info : Advanced Video Codec\nCodec ID : V_MPEG4/ISO/AVC\nBit rate : 1 625 Kbps\nNominal bit rate : 2 222 Kbps\nWidth : 1 280 pixels\nHeight : 704 pixels\nDisplay aspect ratio : 16:9\nFrame rate : 23.976 fps\nStream size : 1.87 GiB (75%)\nTitle : Ripper::~Abhinav4u~ @Team HKRG\n\n\nAudio #1\nFormat : AC-3\nFormat/Info : Audio Coding 3\nBit rate : 384 Kbps\nChannel(s) : 6 channels\nChannel positions : Front: L C R, Side: L R, LFE\nSampling rate : 48.0 KHz\nBit depth : 16 bits\nCompression mode : Lossy\nStream size : 454 MiB (18%)\nTitle : ~Abhinav4u~\nLanguage : English\n\nAudio #2\nFormat : AC-3\nFormat/Info : Audio Coding 3\nBit rate : 128 Kbps\nChannel(s) : 2 channels\nChannel positions : Front: L R\nSampling rate : 48.0 KHz\nStream size : 151 MiB (6%)\nTitle : ~Abhinav4u~\nLanguage : Hindi\n\nSample Included in the Rip..","torrent":{"xt":"urn:btih:fa0e0b558f7a4b85d302ea85264341869e9dfa44","amp;dn":"Bad+Boys+2+2003+720p+BD-Rip+Dual+Audio+Hindi-Eng%7EAbhinav4u%7E+%7BHKR","amp;tr":["udp%3A%2F%2Ftracker.openbittorrent.com%3A80","udp%3A%2F%2Fopen.demonii.com%3A1337","udp%3A%2F%2Ftracker.coppersurfer.tk%3A6969","udp%3A%2F%2Fexodus.desync.com%3A6969"],"infoHash":"fa0e0b558f7a4b85d302ea85264341869e9dfa44","infoHashBuffer":{"type":"Buffer","data":[250,14,11,85,143,122,75,133,211,2,234,133,38,67,65,134,158,157,250,68]},"announce":[],"urlList":[]}}